{
  "accessors": [
    {
      "bufferView": 2,
      "componentType": 5126,
      "count": 1731,
      "max": [
        1.4066849946975708,
        1.6493860483169556,
        0.47577720880508423
      ],
      "min": [
        -0.24276649951934814,
        0.4122026860713959,
        -0.47577691078186035
      ],
      "type": "VEC3"
    },
    {
      "bufferView": 2,
      "byteOffset": 20772,
      "componentType": 5126,
      "count": 1731,
      "max": [
        0.998993992805481,
        0.997559666633606,
        0.9999940395355225
      ],
      "min": [
        -0.9990193247795105,
        -0.9985932111740112,
        -0.9999939203262329
      ],
      "type": "VEC3"
    },
    {
      "bufferView": 1,
      "componentType": 5126,
      "count": 1731,
      "max": [
        0.9990230202674866,
        0.9990230202674866
      ],
      "min": [
        3.099999958067201e-05,
        0.0009769797325134277
      ],
      "type": "VEC2"
    },
    {
      "bufferView": 0,
      "componentType": 5125,
      "count": 8970,
      "type": "SCALAR"
    },
    {
      "bufferView": 2,
      "byteOffset": 41544,
      "componentType": 5126,
      "count": 1038,
      "max": [
        0.23348960280418396,
        1.6152570247650146,
        0.3045162856578827
      ],
      "min": [
        -0.24276649951934814,
        0.01758516952395439,
        -0.3045159876346588
      ],
      "type": "VEC3"
    },
    {
      "bufferView": 2,
      "byteOffset": 54000,
      "componentType": 5126,
      "count": 1038,
      "max": [
        0.9984622597694397,
        0.9986844658851624,
        0.9996994137763977
      ],
      "min": [
        -0.9998971223831177,
        -0.9990240931510925,
        -0.9989045262336731
      ],
      "type": "VEC3"
    },
    {
      "bufferView": 1,
      "byteOffset": 13848,
      "componentType": 5126,
      "count": 1038,
      "max": [
        0.9990230202674866,
        0.9990230202674866
      ],
      "min": [
        0.0009769999887794256,
        0.0009769797325134277
      ],
      "type": "VEC2"
    },
    {
      "bufferView": 0,
      "byteOffset": 35880,
      "componentType": 5125,
      "count": 5019,
      "type": "SCALAR"
    },
    {
      "bufferView": 2,
      "byteOffset": 66456,
      "componentType": 5126,
      "count": 274,
      "max": [
        0.40468159317970276,
        2.1805200576782227,
        0.2571260929107666
      ],
      "min": [
        -0.2484457939863205,
        1.126781940460205,
        -0.2571260929107666
      ],
      "type": "VEC3"
    },
    {
      "bufferView": 2,
      "byteOffset": 69744,
      "componentType": 5126,
      "count": 274,
      "max": [
        0.9996731877326965,
        0.9886698126792908,
        0.9996898174285889
      ],
      "min": [
        -0.9940029978752136,
        -0.9894534349441528,
        -0.9885536432266235
      ],
      "type": "VEC3"
    },
    {
      "bufferView": 1,
      "byteOffset": 22152,
      "componentType": 5126,
      "count": 274,
      "max": [
        0.9990230202674866,
        0.9990230202674866
      ],
      "min": [
        0.0009769999887794256,
        0.0009769797325134277
      ],
      "type": "VEC2"
    },
    {
      "bufferView": 0,
      "byteOffset": 55956,
      "componentType": 5125,
      "count": 1209,
      "type": "SCALAR"
    }
  ],
  "asset": {
    "extras": {
      "author": "kmilo2008 (https://sketchfab.com/kmilo2008)",
      "license": "CC-BY-4.0 (http://creativecommons.org/licenses/by/4.0/)",
      "source": "https://sketchfab.com/3d-models/pyramid-head-silent-hill-2-ba665f20056a41c98aa7cb6c56663105",
      "title": "Pyramid Head - Silent Hill 2"
    },
    "generator": "Sketchfab-12.66.0",
    "version": "2.0"
  },
  "bufferViews": [
    {
      "buffer": 0,
      "byteLength": 60792,
      "name": "floatBufferViews",
      "target": 34963
    },
    {
      "buffer": 0,
      "byteLength": 24344,
      "byteOffset": 60792,
      "byteStride": 8,
      "name": "floatBufferViews",
      "target": 34962
    },
    {
      "buffer": 0,
      "byteLength": 73032,
      "byteOffset": 85136,
      "byteStride": 12,
      "name": "floatBufferViews",
      "target": 34962
    }
  ],
  "buffers": [
    {
      "byteLength": 158168,
      "uri": "scene.bin"
    }
  ],
  "images": [
    {
      "uri": "textures/Model001_Material001_baseColor.png"
    },
    {
      "uri": "textures/Model001_Material002_baseColor.png"
    },
    {
      "uri": "textures/Model001_Material003_baseColor.png"
    }
  ],
  "materials": [
    {
      "doubleSided": true,
      "name": "Model001_Material001",
      "pbrMetallicRoughness": {
        "baseColorTexture": {
          "index": 0
        },
        "metallicFactor": 0.0,
        "roughnessFactor": 0.6
      }
    },
    {
      "doubleSided": true,
      "name": "Model001_Material002",
      "pbrMetallicRoughness": {
        "baseColorTexture": {
          "index": 1
        },
        "metallicFactor": 0.0,
        "roughnessFactor": 0.6
      }
    },
    {
      "doubleSided": true,
      "name": "Model001_Material003",
      "pbrMetallicRoughness": {
        "baseColorTexture": {
          "index": 2
        },
        "metallicFactor": 0.0,
        "roughnessFactor": 0.6
      }
    }
  ],
  "meshes": [
    {
      "name": "pyramid head_Model001_Material001_0",
      "primitives": [
        {
          "attributes": {
            "NORMAL": 1,
            "POSITION": 0,
            "TEXCOORD_0": 2
          },
          "indices": 3,
          "material": 0,
          "mode": 4
        }
      ]
    },
    {
      "name": "pyramid head_Model001_Material002_0",
      "primitives": [
        {
          "attributes": {
            "NORMAL": 5,
            "POSITION": 4,
            "TEXCOORD_0": 6
          },
          "indices": 7,
          "material": 1,
          "mode": 4
        }
      ]
    },
    {
      "name": "pyramid head_Model001_Material003_0",
      "primitives": [
        {
          "attributes": {
            "NORMAL": 9,
            "POSITION": 8,
            "TEXCOORD_0": 10
          },
          "indices": 11,
          "material": 2,
          "mode": 4
        }
      ]
    }
  ],
  "nodes": [
    {
      "children": [
        1
      ],
      "matrix": [
        0.009988032281398773,
        0.0,
        0.0,
        0.0,
        0.0,
        2.2177886819016497e-18,
        -0.009988032281398773,
        0.0,
        0.0,
        0.009988032281398773,
        2.2177886819016497e-18,
        0.0,
        0.0,
        0.0,
        0.0,
        1.0
      ],
      "name": "Sketchfab_model"
    },
    {
      "children": [
        2
      ],
      "matrix": [
        1.0,
        0.0,
        0.0,
        0.0,
        0.0,
        0.0,
        1.0,
        0.0,
        0.0,
        -1.0,
        0.0,
        0.0,
        0.0,
        0.0,
        0.0,
        1.0
      ],
      "name": "226dbca75a474d4eb42755233552039a.fbx"
    },
    {
      "children": [
        3,
        7
      ],
      "name": "RootNode"
    },
    {
      "children": [
        4,
        5,
        6
      ],
      "matrix": [
        7.549789959870878e-06,
        0.0,
        99.9999999999997,
        0.0,
        -1.629206991538001e-05,
        99.99999999999866,
        1.2300170586761169e-12,
        0.0,
        -99.99999999999837,
        -1.6292069915380057e-05,
        7.549789959870878e-06,
        0.0,
        0.0,
        0.0,
        0.0,
        1.0
      ],
      "name": "pyramid head"
    },
    {
      "mesh": 0,
      "name": "pyramid head_Model001_Material001_0"
    },
    {
      "mesh": 1,
      "name": "pyramid head_Model001_Material002_0"
    },
    {
      "mesh": 2,
      "name": "pyramid head_Model001_Material003_0"
    },
    {
      "children": [
        8
      ],
      "matrix": [
        70.71067657322368,
        -2.1478718664758034e-06,
        -70.71067966408576,
        0.0,
        49.99999837297678,
        70.71068348381837,
        49.99999403953538,
        0.0,
        50.00000381259261,
        -70.71067275349068,
        50.000003774894594,
        0.0,
        0.0,
        0.0,
        0.0,
        1.0
      ],
      "name": "Sun"
    },
    {
      "children": [
        9
      ],
      "matrix": [
        1.0,
        0.0,
        0.0,
        0.0,
        0.0,
        2.220446049250313e-16,
        1.0,
        0.0,
        0.0,
        -1.0,
        2.220446049250313e-16,
        0.0,
        0.0,
        0.0,
        0.0,
        1.0
      ],
      "name": "Object_8"
    },
    {
      "name": "Object_9"
    }
  ],
  "samplers": [
    {
      "magFilter": 9729,
      "minFilter": 9987,
      "wrapS": 10497,
      "wrapT": 10497
    }
  ],
  "scene": 0,
  "scenes": [
    {
      "name": "Sketchfab_Scene",
      "nodes": [
        0
      ]
    }
  ],
  "textures": [
    {
      "sampler": 0,
      "source": 0
    },
    {
      "sampler": 0,
      "source": 1
    },
    {
      "sampler": 0,
      "source": 2
    }
  ]
}
