{
  "accessors": [
    {
      "bufferView": 2,
      "componentType": 5126,
      "count": 7545,
      "max": [
        0.4017776846885681,
        0.13815787434577942,
        0.8162697553634644
      ],
      "min": [
        -0.22923463582992554,
        -0.23646265268325806,
        -1.4369432926177979
      ],
      "type": "VEC3"
    },
    {
      "bufferView": 2,
      "byteOffset": 90540,
      "componentType": 5126,
      "count": 7545,
      "max": [
        0.9998409152030945,
        0.9999158382415771,
        0.9997245669364929
      ],
      "min": [
        -0.9999329447746277,
        -0.9999674558639526,
        -0.9992210268974304
      ],
      "type": "VEC3"
    },
    {
      "bufferView": 3,
      "componentType": 5126,
      "count": 7545,
      "max": [
        0.999433696269989,
        0.9999179840087891,
        0.999642550945282,
        1.0
      ],
      "min": [
        -0.9999615550041199,
        -0.9999322295188904,
        -0.9999325275421143,
        1.0
      ],
      "type": "VEC4"
    },
    {
      "bufferView": 3,
      "byteOffset": 120720,
      "componentType": 5126,
      "count": 7545,
      "max": [
        1.0,
        1.0,
        1.0,
        1.0
      ],
      "min": [
        0.0,
        0.003921568859368563,
        0.0,
        1.0
      ],
      "type": "VEC4"
    },
    {
      "bufferView": 1,
      "componentType": 5126,
      "count": 7545,
      "max": [
        0.9980400204658508,
        0.9829699993133545
      ],
      "min": [
        0.0019499999471008778,
        0.0019499999471008778
      ],
      "type": "VEC2"
    },
    {
      "bufferView": 0,
      "componentType": 5125,
      "count": 39774,
      "type": "SCALAR"
    }
  ],
  "asset": {
    "extras": {
      "author": "ShaxerTakkuY (https://sketchfab.com/ShaxerTakkuY)",
      "license": "CC-BY-4.0 (http://creativecommons.org/licenses/by/4.0/)",
      "source": "https://sketchfab.com/3d-models/lying-figure-silent-hill-c0d6a09088644ddeaf9cc6861e5e5d04",
      "title": "Lying Figure - Silent Hill"
    },
    "generator": "Sketchfab-15.16.0",
    "version": "2.0"
  },
  "bufferViews": [
    {
      "buffer": 0,
      "byteLength": 159096,
      "name": "floatBufferViews",
      "target": 34963
    },
    {
      "buffer": 0,
      "byteLength": 60360,
      "byteOffset": 159096,
      "byteStride": 8,
      "name": "floatBufferViews",
      "target": 34962
    },
    {
      "buffer": 0,
      "byteLength": 181080,
      "byteOffset": 219456,
      "byteStride": 12,
      "name": "floatBufferViews",
      "target": 34962
    },
    {
      "buffer": 0,
      "byteLength": 241440,
      "byteOffset": 400536,
      "byteStride": 16,
      "name": "floatBufferViews",
      "target": 34962
    }
  ],
  "buffers": [
    {
      "byteLength": 641976,
      "uri": "scene.bin"
    }
  ],
  "extensionsRequired": [
    "KHR_materials_pbrSpecularGlossiness"
  ],
  "extensionsUsed": [
    "KHR_materials_pbrSpecularGlossiness",
    "KHR_materials_emissive_strength"
  ],
  "images": [
    {
      "uri": "textures/defaultMat_diffuse.png"
    },
    {
      "uri": "textures/defaultMat_specularGlossiness.png"
    },
    {
      "uri": "textures/defaultMat_emissive.png"
    }
  ],
  "materials": [
    {
      "alphaMode": "BLEND",
      "doubleSided": true,
      "emissiveFactor": [
        1.0,
        1.0,
        1.0
      ],
      "emissiveTexture": {
        "index": 2
      },
      "extensions": {
        "KHR_materials_emissive_strength": {
          "emissiveStrength": 1.4027131565653255
        },
        "KHR_materials_pbrSpecularGlossiness": {
          "diffuseFactor": [
            0.3772640600325124,
            0.3772640600325124,
            0.3772640600325124,
            0.839096074713909
          ],
          "diffuseTexture": {
            "index": 0
          },
          "glossinessFactor": 1.0,
          "specularFactor": [
            0.4441081674206093,
            0.4441081674206093,
            0.4441081674206093
          ],
          "specularGlossinessTexture": {
            "index": 1
          }
        }
      },
      "name": "defaultMat",
      "normalTexture": {
        "index": 2,
        "scale": 0.304343215609134
      }
    }
  ],
  "meshes": [
    {
      "name": "Object_0",
      "primitives": [
        {
          "attributes": {
            "COLOR_0": 3,
            "NORMAL": 1,
            "POSITION": 0,
            "TANGENT": 2,
            "TEXCOORD_0": 4
          },
          "indices": 5,
          "material": 0,
          "mode": 4
        }
      ]
    }
  ],
  "nodes": [
    {
      "children": [
        1
      ],
      "matrix": [
        0.8508483076754487,
        -0.007310894467173577,
        -0.059072630493075984,
        0.0,
        -0.059174752247142415,
        -0.012420721180267746,
        -0.850781963486746,
        0.0,
        0.006432258547427738,
        0.8528060458844564,
        -0.01289765662081902,
        0.0,
        0.0,
        0.0,
        0.0,
        1.0
      ],
      "name": "Sketchfab_model"
    },
    {
      "children": [
        2
      ],
      "name": "Lying_Figure_6666.OBJ.cleaner.materialmerger.gles"
    },
    {
      "mesh": 0,
      "name": "Object_2"
    }
  ],
  "samplers": [
    {
      "magFilter": 9729,
      "minFilter": 9987,
      "wrapS": 10497,
      "wrapT": 10497
    }
  ],
  "scene": 0,
  "scenes": [
    {
      "name": "Sketchfab_Scene",
      "nodes": [
        0
      ]
    }
  ],
  "textures": [
    {
      "sampler": 0,
      "source": 0
    },
    {
      "sampler": 0,
      "source": 1
    },
    {
      "sampler": 0,
      "source": 2
    }
  ]
}
